<?xml version="1.0" encoding="iso-8859-1"?>
<!-- Generator: Adobe Illustrator 25.2.0, SVG Export Plug-In . SVG Version: 6.00 Build 0)  -->
<svg version="1.1" id="Athene_x5F_revised" xmlns="http://www.w3.org/2000/svg" xmlns:xlink="http://www.w3.org/1999/xlink" x="0px"
	 y="0px" viewBox="0 0 595.276 841.89" style="enable-background:new 0 0 595.276 841.89;" xml:space="preserve">
<g>
	<polygon style="fill:#FFFFFF;" points="219,389.89 374.905,389.89 374.905,452.252 219,452.252 219,389.89 	"/>
	<g>
		<path d="M280.35,403.685v0.746h2.374v7.331h0.891v-7.331h2.387v-0.746H280.35L280.35,403.685z M287.814,403.685v8.078h4.392
			v-0.746h-3.488v-3.064h3.158v-0.747h-3.158v-2.774h3.488v-0.746H287.814L287.814,403.685z M298.158,404.193
			c0.775,0,1.457,0.156,2.093,0.578l0.343-0.648c-0.758-0.396-1.509-0.615-2.436-0.615c-2.388,0-4.268,1.721-4.268,4.185
			c0,2.629,1.878,4.185,4.268,4.185c0.818,0,1.684-0.315,2.4-0.718l-0.321-0.576c-0.631,0.351-1.363,0.61-2.078,0.61
			c-1.962,0-3.347-1.562-3.347-3.502C294.811,405.755,296.196,404.193,298.158,404.193L298.158,404.193z M302.639,403.685v8.078
			h0.905l0-3.87h4.403v3.87h0.898v-8.078h-0.898v3.474h-4.403l0-3.474H302.639L302.639,403.685z M312.664,403.5l-0.938,0.24v8.024
			h0.863l-0.004-6.934l4.749,7.112l0.953-0.263v-7.992h-0.84l-0.016,6.93L312.664,403.5L312.664,403.5z M321.559,403.685v8.078
			h0.897v-8.078H321.559L321.559,403.685z M327.061,411.27c-0.628,0-1.272-0.274-1.719-0.57l-0.36,0.586
			c0.652,0.391,1.297,0.596,2.138,0.596c1.757,0,2.573-1.101,2.573-2.276c0-1.231-0.874-1.75-1.797-2.194l-0.679-0.325
			c-0.589-0.297-1.215-0.683-1.215-1.444c0-1.048,0.863-1.521,1.604-1.521c0.754,0,1.246,0.265,1.712,0.568l0.311-0.593
			c-0.624-0.362-1.311-0.588-2.071-0.588c-1.425,0-2.407,0.863-2.407,2.074c0,1.69,1.237,1.995,2.426,2.569
			c0.654,0.316,1.193,0.711,1.193,1.536C328.772,410.657,328.061,411.27,327.061,411.27L327.061,411.27z M335.932,404.193
			c0.775,0,1.458,0.156,2.093,0.578l0.343-0.648c-0.758-0.396-1.509-0.615-2.436-0.615c-2.388,0-4.268,1.721-4.268,4.185
			c0,2.629,1.878,4.185,4.268,4.185c0.818,0,1.685-0.315,2.4-0.718l-0.321-0.576c-0.631,0.351-1.363,0.61-2.079,0.61
			c-1.962,0-3.347-1.562-3.347-3.502C332.585,405.755,333.971,404.193,335.932,404.193L335.932,404.193z M340.682,403.685v8.078
			h0.904v-3.87h4.403v3.87h0.897v-8.078h-0.897v3.474h-4.403v-3.474H340.682L340.682,403.685z M349.766,403.685v8.078h4.399v-0.746
			h-3.488v-3.064h3.159v-0.746h-3.159v-2.775h3.488v-0.746H349.766L349.766,403.685z M287.558,422.346v-5.298h-0.904l0,5.167
			c0,1.812-0.874,2.384-2.268,2.384c-1.528,0-2.174-0.834-2.174-2.384v-5.167h-0.93l0.023,5.376c0,1.842,1.084,2.843,3.08,2.843
			C285.902,425.267,287.558,424.781,287.558,422.346L287.558,422.346z M291.053,416.87l-0.939,0.239v8.024h0.863l-0.004-6.934
			l4.749,7.112l0.952-0.263v-7.993h-0.84l-0.016,6.93L291.053,416.87L291.053,416.87z M299.51,417.048v8.084h0.904v-8.084H299.51
			L299.51,417.048z M303.04,416.925l-0.877,0.277l3.084,7.931h0.892l3.104-7.919l-0.857-0.287l-2.669,7.25L303.04,416.925
			L303.04,416.925z M310.988,417.048v8.084h4.391v-0.746h-3.487v-3.064h3.152v-0.747h-3.152v-2.781h3.487v-0.746H310.988
			L310.988,417.048z M319.482,420.991h-1.077v-3.242h1.302c1.392,0,1.808,0.681,1.808,1.612
			C321.515,420.646,320.51,420.991,319.482,420.991L319.482,420.991z M319.936,417.055l-2.441-0.007v8.09h0.911v-3.481h0.74
			c0.597,0,0.905,0.219,1.257,0.649l0.347,0.444l1.897,2.585l0.788-0.473l-1.599-2.116c-0.314-0.39-0.744-1.146-1.26-1.269
			l0.008-0.167c1.114-0.15,1.764-0.796,1.764-2.099C322.349,417.897,321.458,417.055,319.936,417.055L319.936,417.055z
			 M326.664,424.695c-0.628,0-1.272-0.274-1.719-0.57l-0.36,0.586c0.652,0.391,1.297,0.596,2.138,0.596
			c1.757,0,2.573-1.101,2.573-2.276c0-1.23-0.873-1.75-1.797-2.194l-0.679-0.325c-0.589-0.296-1.215-0.682-1.215-1.443
			c0-1.048,0.863-1.521,1.604-1.521c0.754,0,1.246,0.266,1.712,0.568l0.311-0.592c-0.625-0.362-1.311-0.588-2.071-0.588
			c-1.425,0-2.407,0.862-2.407,2.074c0,1.689,1.237,1.995,2.426,2.569c0.654,0.315,1.193,0.71,1.193,1.536
			C328.374,424.083,327.664,424.695,326.664,424.695L326.664,424.695z M331.721,417.048v8.084h0.904v-8.084H331.721L331.721,417.048
			z M334.391,417.048v0.746h2.374v7.338h0.892v-7.338h2.387v-0.746H334.391L334.391,417.048z M344.137,417.863l1.487,3.998h-3.021
			L344.137,417.863L344.137,417.863z M347.809,425.035l-3.197-7.987h-0.947l-3.293,7.987l0.892,0.312l1.087-2.832h3.515l1.055,2.837
			L347.809,425.035L347.809,425.035z M346.469,416.536h-0.812v1.056h0.812V416.536L346.469,416.536z M342.642,417.592v-1.056h-0.805
			v1.056H342.642L342.642,417.592z M348.639,417.048v0.746h2.373l0,7.338h0.892l0-7.338h2.386v-0.746H348.639L348.639,417.048z
			 M283.393,437.796h-1.181v-6.678l1.365,0.005c2.242,0,3.712,1.147,3.712,3.282C287.289,436.525,285.791,437.796,283.393,437.796
			L283.393,437.796z M283.769,430.411l-2.468,0.007v8.077h2.194c2.798,0,4.651-1.419,4.651-4.15
			C288.145,432.37,287.014,430.411,283.769,430.411L283.769,430.411z M293.158,431.226l1.487,3.998h-3.021L293.158,431.226
			L293.158,431.226z M296.831,438.398l-3.197-7.987h-0.947l-3.293,7.986l0.893,0.313l1.087-2.832h3.515l1.055,2.837L296.831,438.398
			L296.831,438.398z M300.968,434.355h-1.077v-3.242h1.302c1.392,0,1.808,0.68,1.808,1.612
			C303.001,434.01,301.996,434.355,300.968,434.355L300.968,434.355z M301.421,430.419l-2.441-0.007v8.09h0.911v-3.48h0.74
			c0.597,0,0.905,0.219,1.257,0.648l0.347,0.445l1.898,2.584l0.788-0.472l-1.598-2.116c-0.314-0.39-0.743-1.146-1.26-1.268
			l0.008-0.167c1.114-0.15,1.764-0.796,1.764-2.1C303.835,431.261,302.944,430.419,301.421,430.419L301.421,430.419z
			 M309.902,430.418h-0.987l-2.26,7.99l0.87,0.233l1.903-7.015l2.05,6.87h1.014l2.083-6.885l1.877,7.03l0.857-0.232l-2.247-7.99
			h-0.992l-2.086,7.04L309.902,430.418L309.902,430.418z M321.162,438.035c-0.628,0-1.272-0.273-1.719-0.569l-0.359,0.587
			c0.651,0.39,1.297,0.595,2.138,0.595c1.757,0,2.573-1.1,2.573-2.276c0-1.231-0.873-1.75-1.797-2.194l-0.679-0.326
			c-0.589-0.296-1.214-0.682-1.214-1.443c0-1.048,0.863-1.521,1.604-1.521c0.754,0,1.246,0.265,1.712,0.568l0.311-0.593
			c-0.624-0.361-1.311-0.588-2.071-0.588c-1.424,0-2.407,0.863-2.407,2.074c0,1.69,1.237,1.995,2.426,2.569
			c0.654,0.316,1.193,0.711,1.193,1.536C322.872,437.423,322.162,438.035,321.162,438.035L321.162,438.035z M325.297,430.418v0.746
			h2.374v7.331h0.892v-7.331h2.386v-0.746H325.297L325.297,430.418z M335.151,431.233l1.487,3.998h-3.021L335.151,431.233
			L335.151,431.233z M338.823,438.405l-3.197-7.987h-0.947l-3.293,7.987l0.893,0.312l1.087-2.832h3.515l1.055,2.837L338.823,438.405
			L338.823,438.405z M342.759,437.796h-1.182v-6.678l1.366,0.005c2.242,0,3.712,1.147,3.712,3.282
			C346.654,436.525,345.157,437.796,342.759,437.796L342.759,437.796z M343.134,430.411l-2.468,0.007v8.077h2.193
			c2.799,0,4.651-1.419,4.651-4.15C347.51,432.37,346.38,430.411,343.134,430.411L343.134,430.411z M348.61,430.418v0.746h2.373
			v7.331h0.891v-7.331h2.387v-0.746H348.61L348.61,430.418z"/>
		<path d="M253.211,430.506c-0.657,0-1.192,0.535-1.192,1.192c0,0.658,0.535,1.193,1.192,1.193s1.192-0.535,1.192-1.193
			C254.403,431.041,253.868,430.506,253.211,430.506z M253.953,431.698c0,0.41-0.333,0.743-0.742,0.743s-0.742-0.333-0.742-0.743
			c0-0.409,0.333-0.742,0.742-0.742S253.953,431.289,253.953,431.698z"/>
		<path d="M270.31,422.67c-0.868-2.301-3.649-10.631-4.206-12.309c0.049-0.034,0.112-0.076,0.186-0.125
			c0.105-0.069,0.141-0.154,0.098-0.281c-0.113-0.333-1.966-5.767-2.017-5.918c-0.035-0.105-0.097-0.166-0.167-0.188
			c-0.072-0.022-0.153-0.003-0.226,0.055c-1.06,0.842-2.057,1.794-3.074,2.917c-1.041-0.354-2.083-0.623-3.098-0.801
			c0.445-0.413,1.063-0.483,2.078-0.312c0.215,0.036,0.303,0.013,0.395-0.141c0.509-0.849,3.488-5.786,3.488-5.786
			c0.084-0.16,0.01-0.284-0.119-0.328c-2.426-0.838-5.102-1.378-7.936-1.378c-6.566,0-12.57,2.924-16.795,7.582
			c-2.526,2.785-4.507,6.256-5.497,10.18c-0.445,1.764-0.686,3.517-0.686,5.558c0,2.927,0.626,5.83,1.791,8.527
			c1.041,2.412,2.539,4.667,4.398,6.712c0.091,0.1,0.249,0.103,0.339-0.007c0.451-0.548,3.257-3.903,3.257-3.903
			c0.062-0.074,0.088-0.189,0.021-0.285c-0.308-0.436-0.468-0.866-0.47-1.269c-0.002-0.352,0.098-0.711,0.257-1.136
			c0.151,0.219,0.659,0.889,1.01,1.331c0.448,0.564,0.91,1.168,1.246,1.723c-1.764,1.185-2.539,2.542-2.539,3.782
			c0,1.197,0.62,2.225,1.421,3.061c0.816,0.853,1.952,1.63,3.414,2.303c1.962,0.902,5.063,1.825,9.059,1.825
			c2.092,0,3.802-0.255,5.052-0.512c1.246-0.256,3.296-0.781,5.586-1.895c0.126-0.061,0.16-0.127,0.16-0.232
			c0-0.053-0.025-0.109-0.106-0.177c-0.585-0.489-2.814-1.18-4.593-1.677c0.093-1.1,0.32-2.206,0.674-3.325
			c0.167,0.006,0.331,0.009,0.494,0.009c0.877,0,1.73-0.085,2.455-0.24c1.219-0.261,2.264-0.759,2.835-1.405
			c0.268-0.303,0.484-0.737,0.484-1.185c0-0.644-0.4-1.244-0.91-1.774c0.267-0.371,0.445-0.508,0.9-0.528
			c0.104-0.005,0.192-0.099,0.245-0.257c0.09-0.268,0.024-0.647-0.082-0.84c-0.106-0.194-0.169-0.281-0.323-0.41
			c0.409-0.326,0.711-0.612,0.711-0.959c0-0.276-0.177-0.55-0.32-0.747c-0.284-0.391-0.237-0.563,0.339-1.118
			c1.173-0.086,1.681-0.474,1.681-1.258C271.219,424.804,270.657,423.591,270.31,422.67z M262.007,441.437
			c0.731,0.193,1.706,0.47,2.278,0.701c-0.678,0.251-1.384,0.474-2.099,0.664C262.097,442.381,262.037,441.921,262.007,441.437z
			 M266.05,441.403c-0.389,0.182-0.79,0.354-1.19,0.515c-0.4-0.237-1.34-0.549-2.873-0.953c-0.006-0.306-0.001-0.622,0.016-0.94
			C263.161,440.349,265.197,440.953,266.05,441.403z M269.467,426.339c-0.876-0.208-1.97-0.167-2.74,0.464
			c-0.189-0.181-0.337-0.418-0.337-0.705c0-0.271,0.173-0.587,0.497-0.887c0.063-0.058,0.088-0.132,0.071-0.208
			c-0.018-0.08-0.083-0.151-0.163-0.176c-0.073-0.021-0.151-0.003-0.214,0.055c-0.495,0.458-0.642,0.872-0.642,1.223
			c0,0.16,0.051,0.364,0.109,0.505c0.095,0.233,0.352,0.569,0.603,0.68c0.097,0.042,0.179,0.037,0.252-0.038
			c0.045-0.046,0.248-0.211,0.307-0.248c0.609-0.378,1.455-0.326,1.77-0.291c-0.416,0.453-0.572,0.865-0.161,1.433
			c0.178,0.245,0.248,0.336,0.248,0.421c0,0.196-0.172,0.438-0.71,0.831c-0.069-0.006-0.141-0.008-0.214-0.008
			c-0.697,0-1.484,0.2-2.341,0.422c-0.207,0.053-0.382,0.093-0.588,0.15c0.032-0.098,0.078-0.206,0.119-0.296
			c0.063-0.141-0.012-0.274-0.15-0.292c-0.114-0.015-0.192,0.045-0.263,0.197c-0.084,0.178-0.286,0.589-0.192,0.866
			c0.034,0.098,0.105,0.159,0.202,0.159c0.098,0,0.184-0.061,0.219-0.157c0.223-0.051,0.472-0.115,0.735-0.184
			c0.724-0.187,1.525-0.39,2.16-0.408c0.044-0.001,0.264-0.003,0.322,0.003c0.333,0.172,0.464,0.466,0.409,0.833
			c-0.273,0.044-0.517,0.161-0.713,0.302c-0.262,0.188-0.44,0.42-0.493,0.583c-0.037,0.114-0.019,0.209,0.052,0.274
			c0.581,0.542,0.885,1.091,0.885,1.588c0,0.36-0.176,0.683-0.363,0.905c-0.451,0.537-1.363,0.978-2.577,1.235
			c-1.425,0.303-3.155,0.306-4.874,0.014c-1.959-0.335-3.887-1.049-5.578-2.066c0.469-0.491,0.728-1.136,0.728-1.817
			c0-0.337-0.063-0.666-0.188-0.978c0.574-0.685,0.747-1.668,0.452-2.568c-0.286-0.874-0.936-1.494-1.786-1.704l0.063-0.474
			c2.632-0.334,4.804-2.428,5.286-5.097c0.977-0.657,1.699-1.364,2.207-2.161c1.701-0.755,4.385-1.361,6.362-0.587
			c0.815,2.389,1.355,3.928,1.65,4.701c0.09,0.237,0.518,1.329,0.618,1.611c0.224,0.635,0.379,1.146,0.167,1.468
			C270.509,426.159,270.126,426.296,269.467,426.339z M261.607,439.347c-0.113,1.058-0.11,2.4,0.144,3.565
			c-0.292,0.072-0.563,0.133-0.827,0.188c-2.136-0.759-7.707-2.514-10.317-3.174c1.665-1.809,2.238-4.086,2.219-5.625
			c0.127,0.02,0.257,0.029,0.385,0.029c0.561,0,1.096-0.175,1.548-0.504c2.861,1.757,5.647,2.271,7.487,2.392
			C262.023,437.058,261.751,437.988,261.607,439.347z M260.033,443.267c-0.877,0.148-1.775,0.249-2.671,0.301
			c-1.474-0.677-5.591-2.031-7.979-2.556c0.301-0.218,0.59-0.458,0.858-0.714C252.487,440.842,257.508,442.409,260.033,443.267z
			 M261.066,400.359c0.034-0.065,0.039-0.131,0.024-0.187c-0.015-0.057-0.052-0.104-0.102-0.13c-0.054-0.027-0.12-0.035-0.181-0.017
			c-0.053,0.016-0.11,0.07-0.146,0.138c-0.049,0.093-2.36,4.556-2.36,4.556c-0.303-0.076-0.612-0.143-0.917-0.2l2.412-5.619
			c1.146,0.209,2.304,0.508,3.44,0.89l-3.286,5.446c-0.397-0.149-0.802-0.282-1.205-0.396L261.066,400.359z M259.34,398.821
			l-2.413,5.619c-0.334-0.052-0.677-0.093-1.02-0.122c0,0,1.303-4.161,1.384-4.424c0.025-0.079,0.01-0.156-0.023-0.209
			c-0.042-0.068-0.116-0.1-0.192-0.1c-0.091,0-0.177,0.053-0.212,0.162c-0.119,0.376-1.418,4.54-1.418,4.54
			c-0.371-0.019-0.747-0.026-1.12-0.02l1.478-5.738C256.973,398.532,258.163,398.631,259.34,398.821z M240.805,420.547
			c-0.338,0.315-0.596,0.619-0.76,0.829c-0.007-0.621,0.027-1.253,0.102-1.879L240.805,420.547z M243.584,415.373
			c0.403,0.67,1.011,1.204,1.511,1.58c-0.208,0.148-0.431,0.304-0.636,0.468c-0.802-0.624-1.885-1.473-2.05-2.54
			c-0.02-0.127-0.094-0.224-0.202-0.227c-0.121-0.004-0.19,0.071-0.232,0.185c-0.248,0.685-0.304,1.354-0.171,2.046
			c-0.361,0.089-0.829,0.29-1.261,0.542c0.45-1.703,1.177-3.306,2.162-4.767C242.828,413.566,243.072,414.521,243.584,415.373z
			 M256.65,410.862c-0.05,0.014-0.059,0.054-0.07,0.147c-0.026,0.232-0.01,0.456,0.051,0.671c0.043,0.151,0.109,0.295,0.201,0.428
			c-0.377,0.555-0.757,1.127-1.162,1.75c-0.561-0.188-1.125-0.334-1.722-0.443c0,0,1.342-1.439,1.355-1.46l1.64-1.766
			c0.037-0.04,0.056-0.082,0.062-0.123c0.01-0.073-0.02-0.142-0.068-0.189c-0.04-0.039-0.094-0.066-0.152-0.069
			c-0.049-0.003-0.1,0.012-0.146,0.05c-0.251-0.375-0.27-0.789-0.049-1.083c0.221-0.293,0.619-0.392,1.037-0.257
			c-0.031,0.247-0.01,0.517,0.062,0.804c0.015,0.059,0.045,0.102,0.084,0.13c0.044,0.031,0.099,0.043,0.157,0.038
			c0.07-0.005,0.135-0.04,0.168-0.088c0.032-0.047,0.047-0.11,0.028-0.189c-0.179-0.734,0.091-1.159,0.406-1.319
			c0.371-0.187,0.838-0.056,1.166,0.331c-0.415,0.509-0.993,1.256-1.267,1.63s-0.701,0.959-1.076,1.496
			c-0.249-0.1-0.359-0.174-0.459-0.28c-0.053-0.056-0.1-0.123-0.147-0.174C256.717,410.861,256.686,410.852,256.65,410.862z
			 M250.066,419.941c0.479-0.093,1.001-0.165,1.513-0.208c0.08,0.051,0.151,0.102,0.218,0.153c-0.308,0.466-0.597,0.895-0.882,1.312
			C250.724,420.759,250.442,420.333,250.066,419.941z M244.693,422.692c0-1.884,1.718-3.302,4.073-4.087
			c0.639,0.201,1.571,0.496,2.1,0.751c-1.95,0.253-3.22,0.756-4.174,1.544c-0.602,0.498-0.95,1.079-0.95,1.733
			c0,0.853,0.499,1.502,1.297,1.502c0.784,0,1.28-0.584,1.28-1.251c0-0.813-0.657-1.39-1.45-1.539
			c0.234-0.215,0.611-0.484,0.978-0.676c0.488,0.237,0.949,0.66,1.185,1.092c0.317,0.583,0.341,1.196,0.223,1.748
			c-0.309,0.409-0.598,0.785-0.904,1.165c-0.454,0.259-0.895,0.373-1.245,0.373C245.58,425.047,244.693,424.034,244.693,422.692z
			 M247.113,425.497c0.222,0,0.459-0.035,0.639-0.093c-0.302,0.36-0.583,0.687-0.887,1.022c-1.558-0.153-2.436-0.746-3.005-1.544
			c-0.294-0.412-0.546-0.965-0.597-1.739c-0.143-2.177,1.301-4.195,3.559-5.232c0.369,0.155,0.739,0.296,1.24,0.466
			c-1.09,0.428-1.927,0.952-2.538,1.544c-0.685,0.665-1.281,1.625-1.281,2.76C244.244,424.251,245.298,425.497,247.113,425.497z
			 M242.377,418.407c0.116,0.216,0.247,0.443,0.404,0.685c-0.113,0.142-0.215,0.278-0.316,0.425
			c-0.154,0.041-0.313,0.105-0.467,0.179l-0.438-0.888L242.377,418.407z M242.219,415.723c0.398,0.785,1.115,1.386,1.888,1.99
			c-0.386,0.335-0.724,0.681-1.021,1.015c-0.368-0.564-0.662-1.168-0.79-1.713C242.193,416.577,242.162,416.199,242.219,415.723z
			 M247.872,422.874c0,0.519-0.396,0.81-0.805,0.81c-0.507,0-0.871-0.393-0.871-1.054c0-0.307,0.115-0.609,0.308-0.875
			C247.138,421.761,247.872,422.173,247.872,422.874z M249.535,420.057c0.533,0.458,0.977,1.195,1.061,1.604
			c-0.299,0.43-0.561,0.798-0.826,1.16c-0.014-0.563-0.183-1.026-0.415-1.397c-0.296-0.473-0.695-0.796-1.007-0.989
			C248.876,420.223,249.3,420.106,249.535,420.057z M248.449,418.031c0.23-0.006,0.499-0.013,0.764-0.022
			c1.245-0.043,2.792-0.098,3.729,0.115c-0.293,0.458-0.594,0.923-0.896,1.385c-0.081-0.061-0.187-0.13-0.298-0.198
			c-0.423-0.262-1.1-0.558-1.884-0.816C249.584,418.404,248.734,418.129,248.449,418.031z M249.491,417.556
			c-0.684,0.025-1.868,0.079-2.374-0.005c-0.992-0.425-1.67-0.843-2.246-1.361c1.445,0.355,3.507,0.266,4.343,0.259
			c0.136-0.001,0.29-0.005,0.448-0.008c1.278-0.024,3.014-0.071,4.168,0.29c-0.21,0.332-0.421,0.663-0.633,0.994
			c-0.576-0.156-1.384-0.2-2.251-0.2C250.368,417.525,249.713,417.548,249.491,417.556z M241.459,418.344
			c-0.224,0.106-0.355,0.215-0.383,0.308c-0.028,0.091-0.004,0.216,0.083,0.389c0.071,0.14,0.444,0.877,0.444,0.877
			c-0.151,0.096-0.304,0.207-0.456,0.33l-0.901-1.44c0.042-0.247,0.09-0.499,0.146-0.75c0.548-0.386,1.168-0.65,1.521-0.736
			c0.067,0.222,0.156,0.451,0.262,0.682C242.175,418.003,241.765,418.2,241.459,418.344z M243.299,419.174
			c0.535-0.655,1.442-1.461,2.2-1.947c0.236,0.15,0.534,0.308,0.801,0.441c-2.411,1.241-3.952,3.669-3.373,6.259
			c-0.485,0.487-0.75,0.747-1.533,0.799c0.475-0.705,0.425-1.944,0.498-2.497C242.083,420.784,242.588,420.044,243.299,419.174z
			 M242.331,424.978c0.244-0.117,0.528-0.317,0.772-0.549c0.529,1.261,1.716,2.185,3.383,2.41c-0.305,0.327-0.607,0.639-0.899,0.928
			c-0.918-0.469-1.554-0.784-2.071-1.23C243.011,426.1,242.708,425.678,242.331,424.978z M251.017,415.987
			c-0.917,0-2.996,0.071-4.17,0.001c-1.134-0.068-1.935-0.192-2.619-0.479c-0.356-0.467-0.612-1.04-0.811-1.601
			c0.636,0.563,1.598,0.882,2.637,1.039c0.774,0.117,1.613,0.149,2.467,0.149c0.037,0,0.786-0.009,1.16-0.018
			c1.602-0.04,3.595-0.085,4.933,0.421c-0.179,0.28-0.356,0.56-0.535,0.84C253.201,416.072,252.28,415.987,251.017,415.987z
			 M248.467,414.645c-0.842,0-1.619-0.035-2.317-0.137c-1.277-0.187-2.275-0.599-2.922-1.432c-0.064-0.309-0.1-0.632-0.134-0.969
			c0.049-0.065,0.111-0.146,0.161-0.211c0.541,0.715,1.242,1.147,1.937,1.376c0.628,0.207,1.446,0.363,3.142,0.353
			c1.695-0.01,3.546-0.084,5.104,0.159c0.783,0.122,1.361,0.262,1.979,0.463c-0.186,0.288-0.371,0.576-0.556,0.864
			c-1.044-0.421-2.439-0.506-3.765-0.506C250.622,414.606,248.83,414.645,248.467,414.645z M245.952,409.178
			c0.281,0.486,0.632,0.878,1.173,1.242c0.436,0.293,1.03,0.457,1.484,0.457c0.193,0,0.392-0.023,0.594-0.074
			c0.322,0.336,0.723,0.605,1.163,0.779c-0.362,0.175-0.954,0.281-1.607,0.281c-1.023,0-2.224-0.294-2.864-1.002
			c-0.023-0.025-0.07-0.064-0.095-0.081c-0.04-0.027-0.095-0.056-0.165-0.075c-0.165-0.044-1.085-0.288-1.085-0.288
			C245.024,409.955,245.538,409.512,245.952,409.178z M256.154,408.334c0,0.456-0.331,0.753-0.78,0.795
			c0.003-0.053-0.009-0.098-0.032-0.134c-0.038-0.06-0.106-0.096-0.176-0.1c-0.047-0.003-0.094,0.006-0.133,0.028
			c-0.055,0.031-0.096,0.086-0.107,0.166c-0.007,0.05-0.098,0.708-0.121,0.926c-0.099,0.03-0.186,0.055-0.311,0.055
			c-0.07,0-0.223-0.012-0.331-0.034c-0.061-0.012-0.108-0.016-0.141,0.016c-0.034,0.032-0.019,0.088-0.003,0.128
			c0.116,0.291,0.414,0.409,0.738,0.49c-0.011,0.415,0.022,0.775,0.103,1.102l-1.445,1.557c-0.164-0.023-0.33-0.044-0.494-0.062
			c0,0,1.006-4.082,1.043-4.232c0.015-0.062,0.008-0.115-0.013-0.157c-0.03-0.061-0.089-0.1-0.152-0.116
			c-0.052-0.012-0.11-0.008-0.16,0.016c-0.051,0.025-0.093,0.072-0.112,0.148l-0.005,0.019c-0.325-0.123-0.568-0.542-0.533-0.924
			c0.029-0.321,0.25-0.538,0.605-0.596c0.105,0.233,0.289,0.462,0.546,0.683c0.065,0.056,0.142,0.072,0.215,0.046
			c0.079-0.028,0.14-0.099,0.156-0.181c0.015-0.077-0.011-0.153-0.079-0.207c-0.188-0.151-0.31-0.341-0.385-0.47
			c-0.133-0.23-0.101-0.443-0.026-0.607c0.152-0.333,0.6-0.528,1-0.454c0.399,0.075,0.652,0.396,0.696,0.881
			c-0.229-0.064-0.476-0.071-0.752-0.016c-0.065,0.013-0.111,0.037-0.142,0.071c-0.036,0.039-0.051,0.089-0.051,0.148
			c0,0.082,0.037,0.157,0.1,0.198c0.045,0.029,0.104,0.041,0.173,0.026c0.086-0.019,0.172-0.025,0.274-0.025
			C255.792,407.518,256.154,407.882,256.154,408.334z M248.883,410.407c-1.123,0.154-2.169-0.704-2.568-1.502
			c0.802-0.582,1.664-1.079,2.563-1.477C248.269,408.418,248.271,409.5,248.883,410.407z M248.904,409.19
			c-0.086-0.857,0.325-1.577,0.79-2.094c0.511-0.189,1.04-0.35,1.573-0.479l0.149,1.639c0,0-0.686-0.486-0.815-0.578
			c-0.111-0.08-0.218-0.053-0.286,0.01c-0.067,0.062-0.106,0.174-0.055,0.271c-0.289,0.28-0.448,0.656-0.448,1.06
			c0,0.814,0.663,1.478,1.478,1.478c0.109,0,0.219-0.013,0.327-0.037l0.081,0.887C250.274,411.47,249.024,410.386,248.904,409.19z
			 M251.934,408.964c-0.025-0.265-0.223-2.446-0.223-2.446c0.673-0.142,1.373-0.236,2.079-0.282c-0.203,0.22-0.306,0.478-0.3,0.75
			c-0.514,0.084-0.949,0.446-0.949,1.096c0,0.673,0.436,1.179,0.873,1.304l-0.946,3.838c-0.298-0.023-0.611-0.041-0.929-0.051
			c-0.529-0.498-0.683-1.046-0.728-1.334c0.042-0.03,0.079-0.06,0.113-0.091c0.359,0.07,0.714,0.076,1.058,0.015
			c0.053-0.009,0.11-0.036,0.146-0.086c0.028-0.039,0.044-0.091,0.038-0.161c-0.022-0.24-0.147-1.615-0.147-1.615
			c-0.005-0.055-0.025-0.099-0.054-0.132c-0.048-0.055-0.121-0.079-0.19-0.071c-0.054,0.005-0.108,0.028-0.148,0.068
			s-0.063,0.099-0.056,0.176l0.006,0.063c-0.092,0.027-0.188,0.041-0.285,0.041c-0.567,0-1.028-0.461-1.028-1.027
			c0-0.299,0.129-0.582,0.355-0.777l0.853,0.604l0.014,0.159c0.005,0.054,0.022,0.096,0.048,0.128
			c0.042,0.053,0.108,0.077,0.179,0.077c0.066,0,0.135-0.027,0.178-0.082C251.922,409.087,251.94,409.033,251.934,408.964z
			 M245.544,411.146c0.757,0.838,2.092,1.174,3.263,1.17c0.608-0.002,1.171-0.096,1.588-0.259c0.062,0.278,0.202,0.688,0.524,1.102
			c-0.586-0.011-2.253,0.017-2.568,0.017c-1.042,0-1.981-0.041-2.846-0.276c-0.11-0.452-0.128-1.326,0.012-1.76L245.544,411.146z
			 M255.312,409.585c0.263-0.008,0.496-0.07,0.692-0.182c0.03,0.272,0.142,0.544,0.322,0.789l-1.085,1.17
			C255.161,410.786,255.231,410.169,255.312,409.585z M245.083,411.023c-0.145,0.477-0.137,1.207-0.067,1.7
			c-0.597-0.26-1.079-0.65-1.472-1.192c0.209-0.255,0.427-0.506,0.649-0.744L245.083,411.023z M243.875,427.35
			c-0.365,0.368-0.615,0.549-1.255,0.597c0.071-0.54,0.036-1.03-0.011-1.701C242.969,426.7,243.397,427.05,243.875,427.35z
			 M241.504,421.785c-0.372,0.117-0.958,0.507-1.398,0.824c-0.012-0.144-0.023-0.301-0.034-0.482
			c0.121-0.218,0.352-0.524,0.625-0.828c0.391-0.435,0.884-0.876,1.383-1.142C241.718,420.84,241.594,421.345,241.504,421.785z
			 M258.878,407.368c-0.561,0-0.963,0.34-1.128,0.713c-0.419-0.136-0.83-0.104-1.156,0.089c-0.038-0.324-0.186-0.611-0.419-0.812
			c0.019-0.462-0.066-0.837-0.253-1.115c0.361,0.026,0.898,0.076,1.41,0.155c1.189,0.182,2.305,0.478,3.245,0.788
			c-0.193,0.219-0.391,0.45-0.589,0.687C259.682,407.549,259.28,407.368,258.878,407.368z M241.43,422.297
			c-0.141,1.701-0.201,2.022-0.683,2.503c-0.084,0.084-0.122,0.177-0.09,0.259s0.122,0.132,0.242,0.132
			c0.456,0,0.755-0.021,0.999-0.07c0.075,0.147,0.152,0.288,0.228,0.419c0.003,0.193,0.019,0.438,0.035,0.697
			c0.041,0.658,0.092,1.477-0.033,1.876c-0.024,0.077-0.016,0.15,0.024,0.205c0.04,0.055,0.106,0.087,0.188,0.087
			c0.879,0,1.292-0.165,1.934-0.82c0.256,0.146,0.769,0.398,0.974,0.513c-0.745,0.717-1.524,1.391-2.316,2.003
			c-1.572-2.095-2.461-4.153-2.774-6.97C240.447,422.921,241.069,422.492,241.43,422.297z M264.271,407.382
			c0.13,0.38,0.542,0.586,0.922,0.464l0.167,0.493c-0.25,0.191-0.502,0.389-0.735,0.581l-1.288-0.265l0.228-1.974
			c0.311-0.301,0.625-0.592,0.936-0.864l0.216,0.634C264.341,406.587,264.141,407.002,264.271,407.382z M262.737,415.299
			c1.403-1.066,1.966-2.221,1.823-3.744c0.328-0.284,0.658-0.551,0.983-0.794c0.1,1.229-0.092,2.396-0.555,3.379
			c-0.493,1.047-1.288,1.855-2.3,2.337C262.731,416.221,262.756,415.699,262.737,415.299z M253.211,433.879
			c-1.231,0-2.181-1.007-2.181-2.181c0-0.622,0.268-1.226,0.733-1.63c0.393-0.342,0.888-0.55,1.448-0.55
			c1.179,0,2.181,0.932,2.181,2.18C255.392,432.915,254.403,433.879,253.211,433.879z M247.016,440.209
			c-0.455-0.148-0.892-0.351-1.297-0.602c1.916-0.625,3.256-1.769,3.876-3.307c0.65-1.611,0.466-3.513-0.519-5.354
			c0.252-0.231,0.501-0.47,0.742-0.707c1.34,2.35,1.345,5.094,0.348,6.993C249.597,438.319,248.67,439.345,247.016,440.209z
			 M255.801,429.073c0,0.414-0.132,0.855-0.375,1.206c-0.177-0.275-0.399-0.513-0.667-0.707c0.069-0.221,0.103-0.359,0.103-0.576
			c0-0.341-0.116-0.661-0.332-0.896c-0.216-0.235-0.531-0.384-0.93-0.384c-0.317,0-0.638,0.118-0.91,0.342
			c-0.057-0.298-0.095-0.613-0.107-0.911c0.277-0.344,0.565-0.714,0.881-1.129c0.153,0.007,0.309,0.005,0.461-0.002l-0.049,0.362
			c-0.041-0.004-0.068-0.006-0.104-0.006c-0.052,0-0.111,0.013-0.15,0.036c-0.066,0.038-0.1,0.104-0.1,0.18
			c0,0.071,0.025,0.137,0.075,0.181c0.035,0.03,0.082,0.049,0.143,0.051c0.596,0.019,1.107,0.258,1.492,0.687
			S255.801,428.502,255.801,429.073z M253.801,425.57c0.263-0.353,0.524-0.71,0.777-1.062c1.518-0.474,2.588-1.276,3.23-2.4
			c0.527-0.923,0.717-2.036,0.521-3.055c0.271-0.396,0.512-0.743,0.736-1.062c0.246,0.872,0.336,1.766,0.171,2.748
			c-0.207,1.236-0.828,2.403-1.775,3.293C256.535,424.901,255.24,425.532,253.801,425.57z M257.32,422.042
			c-0.467,0.779-1.275,1.395-2.288,1.827c0.496-0.701,0.984-1.412,1.398-2.017c0.271-0.397,1.284-1.898,1.518-2.242
			C258.013,420.524,257.719,421.377,257.32,422.042z M252.812,428.569c0.195-0.232,0.466-0.404,0.793-0.404
			c0.249,0,0.47,0.095,0.617,0.271c0.119,0.142,0.19,0.337,0.19,0.577c0,0.112-0.022,0.209-0.054,0.318
			c-0.359-0.174-0.745-0.262-1.147-0.262c-0.073,0-0.15,0.004-0.228,0.01C252.92,428.917,252.863,428.745,252.812,428.569z
			 M252.532,429.157c-0.294,0.078-0.572,0.207-0.824,0.382c-0.123-0.285-0.211-0.609-0.276-1.017
			c0.238-0.272,0.488-0.565,0.741-0.872C252.232,428.17,252.354,428.677,252.532,429.157z M250.143,429.914
			c0.295-0.302,0.602-0.627,0.91-0.968c0.074,0.337,0.171,0.63,0.296,0.894c-0.313,0.314-0.543,0.702-0.666,1.124
			C250.521,430.565,250.335,430.202,250.143,429.914z M248.146,435.978c0.687-1.289,0.636-2.745-0.144-4.101
			c0.236-0.192,0.481-0.4,0.729-0.62c0.897,1.733,1.047,3.538,0.394,4.994c-0.682,1.522-1.965,2.456-3.878,3.03
			c-0.356-0.276-0.652-0.579-0.881-0.9C245.971,438.264,247.417,437.345,248.146,435.978z M246.88,435.551
			c0.488-0.969,0.233-2.012-0.125-2.729c0.294-0.206,0.593-0.428,0.891-0.661c0.679,1.226,0.691,2.584,0.033,3.729
			c-0.712,1.237-2.082,2.023-3.575,2.053c-0.125-0.257-0.203-0.516-0.231-0.77C245.573,436.951,246.474,436.356,246.88,435.551z
			 M245.401,433.691c0.33-0.193,0.66-0.4,0.982-0.615c0.355,0.663,0.681,2.115-0.564,2.99c0.034-0.563-0.015-1.137-0.175-1.693
			C245.573,434.126,245.499,433.917,245.401,433.691z M243.873,436.719c0.079-0.697,0.545-1.336,1.412-1.9
			c0.1,0.49,0.119,0.986,0.059,1.516C244.943,436.517,244.449,436.647,243.873,436.719z M264.131,411.939
			c0.018,1.112-0.425,1.984-1.434,2.819c-0.04-0.371-0.104-0.763-0.193-1.167C263.048,412.987,263.596,412.431,264.131,411.939z
			 M259.735,419.075c1.24-1.146,1.751-2.463,1.634-4.157c0.257-0.316,0.513-0.621,0.761-0.906c0.329,1.734,0.162,3.038-0.464,4.173
			c-0.474,0.859-1.15,1.525-1.918,2.088C259.775,419.902,259.775,419.422,259.735,419.075z M259.393,417.529
			c0.3-0.44,1.31-1.774,1.548-2.075c-0.041,1.255-0.429,2.189-1.286,3.07C259.593,418.195,259.505,417.86,259.393,417.529z
			 M262.223,418.086c0.159-0.342,0.283-0.704,0.368-1.075c2.197-0.916,3.371-2.942,3.425-5.487c0.428,1.285,1.236,3.704,2.039,6.063
			C266.474,417.102,264.298,417.288,262.223,418.086z M262.066,413.41c-1.096,1.209-2.27,2.816-3.126,3.999
			c-0.472,0.653-1.838,2.653-2.22,3.215c-0.79,1.162-1.918,2.8-2.487,3.592c-1.693,2.358-3.253,4.257-4.734,5.702
			c-0.903,0.881-2.149,2.087-4.293,3.364c-0.13-0.261-0.343-0.596-0.473-0.791c5.05-3.314,8.67-8.897,11.084-12.359
			c2.661-3.816,5.569-8.163,9.695-11.344l0.396,1.161c-0.225,0.146-0.923,0.631-1.806,1.407
			C263.269,412.09,262.563,412.863,262.066,413.41z M250.098,425.553c1.829-2.345,3.522-5.039,5.16-7.643
			c2.373-3.774,4.826-7.676,7.795-10.718l-0.182,1.559c-0.012,0.128-0.017,0.189,0.017,0.233c0.033,0.043,0.073,0.053,0.183,0.077
			l1.122,0.226c-3.468,2.983-6.114,6.813-8.673,10.517c-3.111,4.503-6.328,9.159-11.042,12.318
			c-0.178-0.248-0.369-0.497-0.536-0.713C246.04,430.09,248.053,428.174,250.098,425.553z M254.887,417.629
			c-0.278,0.442-0.553,0.881-0.827,1.315c-3.087,4.885-6.205,9.487-10.398,12.109l-0.461-0.594c1.556-1.203,2.837-2.475,3.829-3.56
			c1.033-1.129,2.567-3.004,3.981-5.066c1.472-2.147,2.441-3.669,3.568-5.445c1.909-3.011,3.688-5.749,5.603-8.049
			c1.083-1.301,2.433-2.747,3.85-3.9l0.312,0.917C260.363,408.789,257.361,413.696,254.887,417.629z M253.858,404.283
			c-0.278,0.014-0.569,0.037-0.865,0.069c0,0,0.606-3.956,0.669-4.367c0.012-0.079,0.001-0.164-0.031-0.213
			c-0.037-0.057-0.108-0.097-0.182-0.097c-0.065,0-0.111,0.02-0.149,0.053c-0.054,0.048-0.074,0.121-0.094,0.249
			c-0.052,0.344-0.677,4.433-0.677,4.433c-0.367,0.051-0.74,0.117-1.112,0.197l0.389-5.725c1.161-0.212,2.349-0.331,3.533-0.351
			L253.858,404.283z M258.444,405.221c-0.483,0.093-0.866,0.327-1.169,0.714c-0.722-0.105-1.568-0.184-2.559-0.184
			c-3.693,0-6.742,1.308-8.951,3.005c-2.077,1.595-3.514,3.517-4.485,5.462c-1.153,2.31-1.686,4.742-1.686,6.905
			c0,2.891,0.634,5.845,2.423,8.465c-0.211,0.494-0.373,1.036-0.394,1.528c-1.607-2.478-2.488-4.943-2.886-7.263
			c-0.698-4.069,0.223-8.095,2.253-11.314c2.453-3.889,5.661-5.708,7.615-6.56c1.972-0.86,4.068-1.263,6.051-1.263
			C256.115,404.716,257.395,404.938,258.444,405.221z M240.716,430.499c0.175,0.3,0.358,0.598,0.544,0.886c0,0-2.798,2.769-2.9,2.87
			c-0.047,0.046-0.073,0.103-0.079,0.159c-0.007,0.067,0.013,0.133,0.061,0.181c0.04,0.04,0.098,0.06,0.158,0.058
			c0.062-0.002,0.126-0.027,0.176-0.077c0.123-0.123,2.836-2.808,2.836-2.808c0.175,0.26,0.362,0.526,0.557,0.792l-2.988,3.579
			c-0.798-0.891-1.529-1.83-2.173-2.794L240.716,430.499z M239.436,427.923c0.116,0.278,0.235,0.551,0.356,0.81
			c0,0-3.062,1.867-3.212,1.958c-0.065,0.04-0.109,0.091-0.129,0.146c-0.023,0.061-0.017,0.127,0.02,0.186
			c0.037,0.059,0.096,0.099,0.169,0.103c0.052,0.003,0.111-0.012,0.174-0.05c0.151-0.092,3.173-1.935,3.173-1.935
			c0.157,0.321,0.327,0.646,0.505,0.965l-3.83,2.863c-0.62-0.969-1.166-1.979-1.623-3.002L239.436,427.923z M238.519,425.085
			c0.089,0.38,0.194,0.766,0.311,1.146c0,0-3.439,1.008-3.581,1.051c-0.06,0.018-0.108,0.048-0.14,0.087
			c-0.043,0.053-0.057,0.122-0.034,0.2c0.02,0.069,0.066,0.117,0.126,0.14c0.053,0.02,0.117,0.021,0.185,0.001
			c0.178-0.052,3.582-1.051,3.582-1.051c0.092,0.277,0.194,0.562,0.303,0.843l-4.409,2.052c-0.472-1.119-0.849-2.28-1.122-3.451
			L238.519,425.085z M239.453,414.496c0,0-3.109-1.908-3.265-2.001c-0.063-0.038-0.127-0.052-0.183-0.045
			c-0.065,0.008-0.121,0.045-0.157,0.106c-0.03,0.051-0.036,0.107-0.022,0.16c0.016,0.064,0.062,0.124,0.126,0.163
			c0.087,0.052,3.324,2.038,3.324,2.038c-0.122,0.301-0.236,0.606-0.338,0.909l-4.364-2.179c0.392-1.062,0.867-2.106,1.413-3.104
			l3.925,2.992C239.75,413.845,239.596,414.169,239.453,414.496z M250.959,404.712c-0.312,0.076-0.632,0.166-0.951,0.266
			c0,0-0.139-4.311-0.144-4.424c-0.003-0.085-0.024-0.151-0.064-0.195c-0.038-0.041-0.1-0.068-0.168-0.068
			c-0.071,0-0.128,0.033-0.165,0.079c-0.038,0.048-0.056,0.101-0.053,0.188c0.009,0.258,0.148,4.566,0.148,4.566
			c-0.318,0.11-0.638,0.231-0.952,0.361l-0.736-5.49c1.127-0.437,2.296-0.781,3.475-1.024L250.959,404.712z M247.295,406.101
			l-0.98-4.116c-0.017-0.071-0.052-0.124-0.098-0.156c-0.051-0.036-0.117-0.047-0.186-0.031c-0.066,0.015-0.113,0.053-0.139,0.106
			c-0.028,0.055-0.033,0.127-0.015,0.204l1.009,4.215c-0.27,0.15-0.54,0.311-0.803,0.477l-1.708-5.078
			c0.984-0.598,2.016-1.121,3.069-1.555l0.739,5.503C247.886,405.804,247.588,405.949,247.295,406.101z M244.794,407.699
			c0,0-1.612-3.707-1.668-3.837c-0.028-0.065-0.074-0.11-0.127-0.133c-0.053-0.023-0.113-0.023-0.17,0.001
			c-0.052,0.022-0.093,0.059-0.117,0.107c-0.028,0.057-0.032,0.128,0.002,0.205l1.715,3.946c-0.23,0.188-0.457,0.381-0.674,0.576
			l-2.599-4.478c0.886-0.777,1.837-1.49,2.826-2.119l1.712,5.088C245.387,407.259,245.084,407.476,244.794,407.699z
			 M242.677,409.618l-2.387-3.282c-0.04-0.054-0.093-0.09-0.15-0.102c-0.057-0.012-0.118-0.001-0.175,0.038
			c-0.053,0.037-0.082,0.09-0.089,0.147c-0.008,0.062,0.01,0.129,0.051,0.186l2.44,3.353c-0.218,0.246-0.429,0.497-0.627,0.747
			l-3.298-3.81c0.726-0.888,1.523-1.73,2.371-2.503l2.603,4.484C243.16,409.118,242.912,409.368,242.677,409.618z M240.808,411.995
			c0,0-2.476-2.374-2.79-2.676c-0.051-0.049-0.104-0.076-0.154-0.086c-0.074-0.014-0.143,0.012-0.193,0.064
			c-0.051,0.053-0.067,0.116-0.058,0.176s0.041,0.118,0.086,0.161c0.219,0.209,2.863,2.749,2.863,2.749
			c-0.154,0.25-0.3,0.5-0.436,0.747l-3.918-2.987c0.573-1.003,1.229-1.976,1.948-2.892l3.304,3.815
			C241.229,411.374,241.009,411.687,240.808,411.995z M238.541,417.171c0,0-3.417-1.077-3.568-1.124
			c-0.073-0.023-0.143-0.022-0.2-0.002c-0.062,0.022-0.109,0.066-0.126,0.127c-0.018,0.06-0.013,0.123,0.015,0.176
			c0.028,0.053,0.078,0.098,0.152,0.121c0.262,0.083,3.625,1.142,3.625,1.142c-0.07,0.317-0.129,0.634-0.178,0.94l-4.748-0.978
			c0.206-1.178,0.511-2.355,0.908-3.5l4.375,2.184C238.701,416.565,238.615,416.873,238.541,417.171z M238.081,422.09
			c0.021,0.37,0.054,0.745,0.1,1.114c0,0-3.654,0.34-3.764,0.351c-0.072,0.007-0.129,0.032-0.17,0.068
			c-0.052,0.047-0.075,0.112-0.068,0.182c0.006,0.061,0.034,0.115,0.082,0.151c0.048,0.037,0.116,0.056,0.204,0.047
			c0.238-0.023,3.777-0.354,3.777-0.354c0.049,0.332,0.109,0.667,0.179,0.995l-4.78,1.021c-0.253-1.203-0.402-2.438-0.442-3.674
			L238.081,422.09z M238.08,420.219c0,0-3.594-0.396-3.713-0.409c-0.072-0.008-0.136,0.006-0.186,0.036
			c-0.057,0.034-0.095,0.089-0.103,0.153c-0.008,0.068,0.01,0.124,0.046,0.167c0.043,0.051,0.11,0.083,0.19,0.092
			c0.128,0.015,3.747,0.412,3.747,0.412c-0.009,0.322-0.009,0.647,0,0.969l-4.874-0.098c-0.013-1.17,0.072-2.356,0.251-3.526
			l4.756,0.979C238.142,419.402,238.103,419.813,238.08,420.219z M242.518,437.163c-0.107-1.311,0.676-2.594,2.285-3.682
			c0.155,0.3,0.275,0.588,0.366,0.879c-1.294,0.78-1.797,1.652-1.797,2.534c0,1.035,0.737,2.04,1.656,2.749
			c0.663,0.511,1.286,0.806,1.905,1.012c0.066,0.022,0.114,0.021,0.132,0.021c0.032-0.004,0.049-0.01,0.104-0.04
			c1.507-0.775,2.639-1.734,3.427-3.237c0.506-0.965,0.829-2.358,0.695-3.903c0.298,0.318,0.671,0.559,1.083,0.697
			c0.042,1.366-0.393,2.905-1.136,4.137c-0.649,1.076-1.461,1.915-2.549,2.606c-0.682,0.433-1.427,0.724-1.741,0.833
			C244.269,440.521,242.655,438.842,242.518,437.163z M248.855,441.362c1.833,0.348,5.409,1.464,7.441,2.246
			c-0.11,0.002-0.237,0.003-0.331,0.003c-3.01,0-5.989-0.558-8.433-1.583C248.138,441.77,248.422,441.622,248.855,441.362z
			 M267.932,432.135c0.001,0.001,0.001,0.001,0.002,0.002C267.933,432.136,267.932,432.135,267.932,432.135z"/>
		<path d="M261.89,410.45c0.25,0,0.453-0.203,0.453-0.453c0-0.25-0.203-0.453-0.453-0.453c-0.25,0-0.453,0.203-0.453,0.453
			C261.437,410.247,261.64,410.45,261.89,410.45z"/>
		<path d="M259.753,413.062c0.199,0,0.362-0.163,0.362-0.362s-0.163-0.361-0.362-0.361s-0.361,0.162-0.361,0.361
			S259.554,413.062,259.753,413.062z"/>
		<path d="M260.803,411.706c0.225,0,0.408-0.183,0.408-0.407s-0.183-0.408-0.408-0.408s-0.407,0.183-0.407,0.408
			S260.579,411.706,260.803,411.706z"/>
		<path d="M247.65,409.356c0.242,0,0.439-0.197,0.439-0.44c0-0.241-0.197-0.438-0.439-0.438c-0.242,0-0.438,0.197-0.438,0.438
			C247.212,409.158,247.409,409.356,247.65,409.356z"/>
		<path d="M265.629,419.596c-1.015,0.01-1.916,0.133-2.681,0.37c-0.412,0.128-0.887,0.33-1.254,0.542
			c-0.448,0.258-0.811,0.547-1.055,0.815c-0.098,0.119-0.062,0.252,0.012,0.317c0.082,0.072,0.238,0.087,0.343-0.04
			c0.656,0.268,1.519,0.429,2.475,0.457c0.63,0.018,1.423-0.044,1.74-0.113c0.386-0.084,0.635-0.614,0.589-1.226
			c-0.01-0.131-0.037-0.259-0.077-0.38c0.28-0.09,0.578-0.234,0.578-0.478c0-0.092-0.04-0.164-0.112-0.204
			C266.102,419.612,265.914,419.593,265.629,419.596z M263.554,420.27c0.27-0.062,0.544-0.11,0.815-0.142
			c-0.092,0.214-0.129,0.474-0.107,0.734c0.023,0.269,0.11,0.525,0.246,0.724c-0.245,0.023-0.525,0.034-0.812,0.034
			C263.55,421.234,263.506,420.817,263.554,420.27z M261.378,421.256c0.479-0.371,1.056-0.662,1.716-0.863
			c-0.027,0.463,0.011,0.848,0.12,1.208C262.587,421.559,261.952,421.444,261.378,421.256z"/>
	</g>
</g>
</svg>
